<?xml version="1.0" standalone="no"?>
<!--<!DOCTYPE svg PUBLIC "-//W3C//DTD SVG 20010904//EN"-->
<!-- "http://www.w3.org/TR/2001/REC-SVG-20010904/DTD/svg10.dtd">-->
<svg version="1.0" xmlns="http://www.w3.org/2000/svg"
 width="1152.000000pt" height="1232.000000pt" viewBox="0 0 1152.000000 1232.000000"
 preserveAspectRatio="xMidYMid meet">

<g transform="translate(0.000000,1232.000000) scale(0.100000,-0.100000)"
fill="#000000" stroke="none">
<path d="M5655 11957 c-19 -29 -118 -110 -204 -167 -100 -67 -243 -133 -406
-190 -209 -73 -501 -188 -630 -249 -59 -28 -112 -51 -117 -51 -6 0 -41 28 -78
63 -72 66 -154 114 -212 123 -72 12 -158 -58 -271 -222 -59 -84 -67 -91 -152
-136 -50 -26 -142 -66 -205 -88 -150 -54 -161 -60 -187 -98 -29 -43 -40 -100
-64 -322 -61 -569 -173 -1017 -386 -1545 l-85 -210 5 -115 c9 -205 96 -475
259 -801 118 -236 226 -397 353 -525 115 -116 190 -161 252 -151 148 24 444
287 662 587 l76 105 80 -42 c102 -54 265 -115 383 -143 108 -27 100 -4 76
-223 l-17 -148 27 -28 26 -27 -117 -91 c-178 -138 -254 -209 -301 -282 -99
-151 -335 -654 -508 -1086 -83 -206 -89 -224 -88 -290 2 -185 171 -399 409
-518 69 -34 215 -87 241 -87 23 0 25 -18 5 -62 -11 -24 -41 -96 -66 -161 -25
-65 -66 -161 -90 -215 l-44 -97 -58 -24 c-80 -33 -201 -39 -313 -16 -490 100
-1076 512 -1344 947 -71 116 -95 113 -123 -12 -23 -106 -23 -369 0 -520 35
-227 100 -443 186 -622 25 -54 44 -98 41 -98 -3 0 -21 16 -40 35 -19 19 -38
35 -43 35 -14 0 -1 -162 18 -235 34 -128 114 -268 213 -369 98 -100 215 -166
367 -207 112 -31 298 -31 453 0 210 41 431 128 545 215 26 20 51 36 55 36 14
0 85 -382 89 -485 6 -108 -17 -285 -97 -765 -34 -202 -129 -699 -135 -708 -1
-1 -74 15 -161 37 -195 49 -388 84 -415 76 -94 -30 -541 -747 -632 -1015 -32
-95 -32 -118 -2 -150 53 -55 204 -90 410 -95 89 -2 142 -8 167 -19 122 -52
449 -40 968 35 197 29 536 90 611 109 68 19 199 147 298 292 55 82 159 317
396 898 84 206 166 404 182 440 l29 65 1 -395 c1 -217 6 -519 12 -670 l11
-275 78 -115 c129 -191 187 -266 218 -278 134 -54 712 -37 1314 39 200 25 377
55 465 78 39 10 111 26 160 35 166 31 327 95 333 133 11 72 -284 636 -442 846
-55 74 -108 127 -126 127 -17 0 -247 -72 -340 -107 -52 -19 -161 -68 -242
-108 l-146 -73 24 87 c13 47 63 228 110 401 47 173 101 371 120 440 124 455
225 952 270 1325 42 353 -41 1156 -181 1740 -21 87 -64 317 -65 346 0 3 55 9
123 12 99 4 145 12 242 40 133 39 274 93 421 162 53 25 104 45 113 45 9 0 36
-7 61 -16 48 -17 168 -23 212 -11 24 6 29 2 65 -55 21 -35 67 -119 103 -188
61 -117 67 -126 104 -138 51 -16 134 0 175 34 34 28 81 117 81 151 0 23 23 32
35 13 12 -20 85 -50 121 -50 78 0 154 125 154 251 0 24 -11 73 -23 108 l-22
65 35 32 c49 45 48 93 -2 195 -67 136 -172 230 -358 324 -54 27 -91 55 -130
98 -66 72 -147 127 -225 152 l-57 18 6 36 c26 150 14 255 -40 347 -72 123
-274 227 -407 209 -108 -14 -163 -63 -159 -143 1 -36 19 -82 78 -202 42 -85
79 -171 81 -191 5 -35 1 -41 -59 -101 -74 -72 -114 -135 -145 -228 l-22 -65
-83 3 c-390 15 -730 96 -923 222 -81 53 -179 154 -172 178 3 9 12 33 19 53 11
30 11 66 -2 225 -17 214 -21 226 -94 265 -25 13 -46 26 -46 29 0 3 36 28 79
56 l78 52 111 -38 c167 -58 299 -84 422 -85 154 0 182 21 275 205 145 287 225
708 212 1115 -7 206 -18 266 -83 450 -144 403 -208 611 -293 950 -55 218 -102
451 -116 577 -14 123 -177 316 -322 380 -41 18 -59 20 -143 15 -52 -4 -135
-17 -185 -29 l-90 -23 -130 62 c-143 67 -316 125 -440 147 -44 7 -73 16 -65
19 49 19 177 57 192 57 56 0 -44 72 -123 89 -120 26 -372 8 -546 -38 l-73 -19
41 47 c43 48 81 116 93 164 8 33 1 35 -19 4z m445 -221 c0 -2 -33 -11 -72 -21
-89 -21 -245 -80 -276 -103 -22 -17 -18 -18 110 -20 392 -7 894 -210 1174
-474 l87 -83 -27 53 c-32 62 -142 182 -220 237 -30 22 -55 43 -56 46 0 12 162
32 219 26 80 -7 113 -27 208 -123 106 -108 138 -172 153 -309 15 -129 51 -315
104 -540 24 -99 46 -197 50 -217 4 -20 13 -50 21 -65 8 -15 15 -36 15 -46 0
-9 4 -25 9 -35 6 -9 19 -46 30 -82 l20 -65 -68 71 c-43 45 -74 87 -84 115 -28
80 -75 233 -102 333 -15 55 -40 133 -56 175 -38 96 -102 211 -106 191 -2 -9
21 -117 51 -240 104 -427 133 -489 322 -677 187 -187 215 -281 154 -509 -84
-313 -295 -724 -535 -1039 -89 -118 -330 -357 -424 -420 -40 -27 -109 -76
-153 -109 -44 -32 -113 -76 -154 -97 -90 -47 -65 -53 53 -14 42 14 78 24 80
21 2 -2 10 -30 18 -61 l13 -57 -37 -15 c-63 -27 -256 -61 -404 -72 -335 -25
-832 62 -1112 195 l-60 28 65 6 65 5 -45 13 c-25 7 -81 22 -125 33 -200 51
-415 127 -580 203 -54 26 -100 48 -102 50 -2 2 21 52 51 112 175 349 176 505
6 1149 -158 601 -175 707 -167 1025 5 189 19 327 42 425 13 52 -11 16 -44 -66
-61 -156 -82 -284 -82 -499 1 -256 29 -429 156 -945 107 -434 110 -450 110
-605 0 -162 -15 -219 -110 -405 -98 -194 -198 -340 -368 -533 -144 -164 -265
-265 -356 -297 -43 -15 -47 -15 -95 9 -227 112 -559 702 -672 1196 -30 133
-31 222 -3 292 78 197 196 562 259 802 89 341 143 647 175 984 9 93 22 176 30
192 15 28 20 31 150 75 44 15 108 42 143 61 l62 34 -16 -38 c-44 -103 -82
-202 -93 -244 -25 -91 10 -101 50 -15 13 29 44 88 67 132 162 298 293 472 370
492 69 17 308 -164 398 -302 43 -65 46 2 4 85 -16 33 -30 62 -30 65 0 11 252
130 380 180 428 165 943 305 1215 328 62 6 145 7 145 3z m1749 -2731 c2 -384
-59 -699 -182 -945 -46 -92 -72 -132 -100 -155 -37 -29 -43 -30 -130 -29 -108
1 -226 29 -357 85 l-45 19 102 104 c117 120 190 209 295 363 157 227 306 531
379 768 l24 80 7 -50 c3 -28 7 -135 7 -240z m-1018 -1321 c19 -21 23 -42 34
-191 10 -143 10 -173 -2 -200 -50 -111 -339 -206 -713 -233 -227 -17 -456 6
-704 70 -243 63 -462 165 -549 258 l-29 30 12 138 c16 196 11 184 71 184 36 0
56 -6 71 -19 11 -11 50 -35 87 -55 234 -123 557 -192 941 -203 219 -6 324 3
464 38 148 38 266 106 266 154 0 14 -15 36 -39 58 -22 19 -37 38 -34 41 9 8
98 -43 124 -70z m1670 -34 c72 -37 144 -107 173 -170 16 -36 21 -65 21 -145 0
-55 -4 -127 -8 -160 l-8 -60 74 -23 c90 -28 194 -96 241 -158 28 -37 57 -57
133 -96 116 -59 176 -101 240 -172 55 -60 113 -162 113 -198 0 -24 -25 -68
-32 -58 -3 3 -25 32 -50 65 -95 126 -328 320 -302 252 8 -23 -23 -151 -50
-204 -13 -27 -41 -71 -60 -96 -36 -47 -30 -61 12 -31 13 9 25 14 26 13 2 -2
20 -29 39 -60 80 -126 114 -326 70 -413 -28 -57 -63 -86 -103 -86 -48 0 -73
28 -137 151 -54 104 -113 197 -140 222 -16 14 -23 14 -73 1 -61 -17 -144 -12
-210 11 -49 17 -145 78 -187 118 -18 17 -33 28 -33 25 0 -16 32 -79 54 -105
l25 -30 -107 -51 c-131 -62 -215 -94 -341 -129 -82 -23 -116 -27 -228 -28 -84
0 -136 4 -143 11 -6 6 -20 47 -31 90 -35 138 -70 255 -96 311 -26 60 -113 202
-235 386 l-79 118 78 -39 c189 -96 492 -152 816 -152 115 0 117 0 117 -22 0
-32 17 -91 33 -112 12 -16 13 -10 9 43 -9 124 74 305 193 421 90 87 91 126 7
280 -25 47 -56 105 -69 129 -30 55 -39 120 -21 144 41 54 168 58 269 7z
m-3376 -485 c255 -119 550 -178 885 -179 340 0 609 52 772 148 l57 35 27 -47
c15 -26 98 -156 186 -289 236 -360 265 -420 333 -696 86 -348 165 -1009 165
-1382 0 -118 -4 -159 -25 -240 -65 -256 -264 -527 -500 -681 -104 -67 -184
-105 -300 -141 -83 -25 -103 -27 -265 -28 -153 0 -184 3 -249 22 -41 13 -76
21 -78 19 -4 -4 94 -39 167 -60 349 -97 744 29 1027 328 168 178 272 380 307
601 l12 80 10 -140 c5 -77 9 -259 8 -405 0 -236 -3 -285 -27 -445 -60 -397
-173 -891 -423 -1845 -88 -337 -77 -310 -135 -349 -59 -41 -235 -207 -200
-190 14 6 63 35 110 64 48 28 127 73 176 100 50 26 108 58 130 70 164 89 524
227 631 242 42 5 46 4 83 -35 65 -68 169 -234 256 -405 85 -170 161 -360 150
-377 -16 -25 -167 -81 -262 -96 -43 -6 -43 -6 -43 23 0 91 -109 326 -196 422
-89 98 -89 97 19 -164 49 -119 63 -167 71 -233 4 -39 2 -44 -24 -57 -86 -44
-571 -115 -1000 -146 -209 -14 -587 -8 -650 12 -41 13 -51 23 -105 107 -33 51
-79 123 -101 160 l-41 67 -14 300 c-8 165 -14 514 -14 776 l0 475 52 105 c85
169 74 159 244 245 130 66 238 138 226 150 -2 3 -37 -10 -78 -27 -83 -34 -316
-113 -367 -124 -30 -6 -38 -15 -72 -89 -55 -117 -212 -475 -325 -742 -285
-673 -447 -1029 -520 -1139 -55 -82 -132 -169 -176 -198 -50 -33 -698 -138
-1093 -177 -153 -15 -377 -16 -405 -1 -21 12 -22 17 -16 79 10 100 29 175 91
357 30 91 54 171 51 178 -6 19 -106 -131 -157 -238 -49 -103 -94 -231 -105
-299 l-6 -38 -157 4 c-223 7 -260 28 -233 135 60 238 490 916 581 915 143 -1
875 -208 1239 -351 121 -47 140 -51 90 -17 -128 87 -391 210 -621 291 -94 32
-108 40 -108 60 0 12 34 197 75 411 136 698 169 936 163 1158 -1 69 -3 126 -2
126 0 0 27 -25 60 -55 32 -31 73 -66 89 -78 30 -21 30 -21 15 -1 -159 223
-237 373 -294 564 -47 161 -58 282 -32 356 7 22 63 152 124 289 102 232 182
426 182 441 0 4 10 26 22 51 l22 43 50 -7 c102 -16 414 -7 560 15 77 12 142
20 144 18 2 -3 -12 -12 -31 -21 -73 -34 -101 -92 -84 -174 18 -90 161 -193
327 -235 36 -9 115 -23 175 -31 61 -8 135 -21 165 -30 70 -19 192 -20 229 0
16 8 49 37 74 66 44 50 46 51 104 52 74 2 127 36 189 120 64 87 86 153 92 281
7 159 -8 229 -68 313 -52 74 -222 244 -287 287 -37 25 -52 28 -164 33 -68 3
-163 1 -212 -5 l-87 -11 -187 75 c-102 42 -268 111 -367 156 -417 184 -533
221 -381 120 152 -101 652 -331 798 -367 35 -9 34 -15 -6 -42 -27 -20 -29 -23
-11 -23 12 0 46 5 75 10 91 18 310 31 387 24 62 -5 82 -12 130 -45 66 -43 220
-196 261 -256 38 -57 54 -142 49 -255 -4 -77 -10 -105 -36 -160 -34 -75 -118
-171 -162 -186 l-28 -10 39 76 c58 116 81 223 59 277 -6 17 -9 13 -15 -20 -21
-113 -142 -307 -262 -418 -33 -31 -128 -51 -193 -41 l-35 5 60 62 c82 85 126
170 132 256 l4 66 -30 -62 c-45 -96 -137 -207 -211 -256 -33 -23 -115 -22
-215 2 -227 55 -356 174 -285 264 28 35 67 43 94 18 34 -32 148 -81 216 -93
62 -11 162 1 175 21 2 5 -21 11 -53 14 -117 12 -304 101 -389 183 -29 29 -53
47 -53 40 0 -19 -91 -26 -319 -26 -358 1 -597 51 -801 170 -201 117 -316 326
-265 481 69 209 262 671 395 944 142 290 172 326 445 538 l120 94 54 -35 c31
-20 96 -54 146 -77z m4052 -566 c149 -126 269 -302 280 -413 10 -98 -35 -186
-95 -186 -31 0 -102 42 -120 71 -6 10 -18 51 -27 91 -16 78 -77 216 -121 273
l-27 35 22 56 c11 31 21 69 21 85 0 16 4 29 9 29 6 0 31 -18 58 -41z m-6514
-1526 c195 -234 565 -491 919 -637 99 -41 252 -90 326 -105 76 -16 210 -14
268 4 27 8 50 15 51 15 0 0 -20 -46 -45 -102 -44 -99 -45 -107 -45 -193 1 -65
10 -122 32 -209 28 -111 29 -120 13 -132 -9 -7 -21 -10 -26 -7 -5 4 -6 2 -3
-4 9 -14 -109 -88 -213 -134 -82 -36 -229 -84 -294 -94 -17 -3 -54 -10 -82
-15 -195 -34 -328 -19 -486 58 -124 60 -145 75 -232 172 -63 70 -134 192 -151
260 -6 22 -4 21 22 -10 41 -51 90 -97 150 -141 58 -43 120 -75 128 -67 11 10
-6 54 -32 84 -41 46 -107 152 -167 265 -172 327 -276 741 -276 1098 l0 125 34
-70 c18 -38 67 -111 109 -161z"/>
<path d="M6845 11036 c-27 -12 -56 -30 -62 -38 -11 -12 -5 -16 39 -26 72 -17
168 -65 244 -123 36 -27 67 -49 70 -49 6 0 -49 107 -74 143 -11 16 -38 48 -62
73 -50 52 -79 56 -155 20z"/>
<path d="M4853 10825 c-46 -32 -122 -198 -149 -325 -7 -35 -12 -66 -10 -67 2
-2 29 30 60 72 80 104 202 216 280 256 36 19 62 37 58 41 -13 13 -126 38 -172
38 -25 0 -55 -7 -67 -15z"/>
<path d="M6745 10671 c-47 -21 -100 -72 -125 -121 -26 -51 -50 -138 -49 -179
1 -32 2 -29 15 21 18 74 44 125 86 165 65 63 155 80 233 44 51 -23 120 -98
146 -158 52 -121 40 -295 -29 -413 -15 -26 -19 -40 -10 -32 9 7 33 47 54 89
34 70 38 85 42 177 5 118 -13 201 -59 283 -68 120 -198 173 -304 124z"/>
<path d="M5095 10471 c-50 -13 -108 -47 -153 -91 -95 -93 -127 -193 -119 -370
5 -124 25 -198 71 -266 14 -21 24 -39 23 -40 -2 -2 -39 1 -84 5 -79 8 -173 0
-143 -12 8 -3 58 -17 110 -31 169 -44 316 -105 444 -184 40 -25 40 -19 -1 36
-20 26 -21 32 -8 32 23 0 76 28 108 59 83 76 109 247 55 356 -11 22 -22 41
-23 43 -1 2 -16 -11 -33 -28 -41 -40 -83 -41 -123 -1 -28 28 -33 48 -29 98 1
20 -2 21 -29 13 -50 -14 -85 -45 -117 -102 -27 -49 -29 -61 -29 -153 0 -84 4
-107 22 -142 13 -24 21 -43 19 -43 -3 0 -24 8 -48 19 -66 28 -111 121 -127
262 -10 93 2 205 28 265 29 64 93 137 149 170 37 22 63 29 123 32 69 4 82 2
141 -27 101 -48 180 -145 213 -261 l15 -55 -6 49 c-28 232 -252 415 -449 367z"/>
<path d="M6725 10325 c-41 -20 -82 -85 -95 -152 -23 -108 20 -204 117 -263 64
-39 125 -58 378 -120 269 -65 313 -82 332 -128 40 -96 -56 -383 -203 -610 -31
-48 -94 -124 -140 -170 -136 -134 -200 -157 -554 -193 -152 -16 -525 -16 -670
0 -148 16 -371 57 -418 77 -64 26 -165 138 -230 255 l-32 55 20 40 c11 21 16
40 11 42 -6 2 -50 -23 -98 -56 -91 -61 -140 -89 -183 -103 -18 -6 -7 -8 35 -6
39 2 80 12 117 29 l58 27 6 -25 c10 -41 100 -170 168 -242 52 -56 78 -98 152
-247 50 -99 116 -243 148 -320 44 -106 67 -148 94 -173 72 -66 276 -102 466
-83 128 13 282 44 378 77 68 23 174 82 164 91 -2 2 -34 -4 -70 -15 l-66 -20 0
64 c0 88 26 267 56 382 14 53 26 97 27 98 1 1 57 11 124 23 131 22 191 46 277
110 61 45 176 185 239 289 169 280 231 617 125 686 -32 21 -175 58 -408 106
-178 37 -228 50 -188 50 27 0 95 78 112 127 26 76 18 162 -21 228 -11 19 -12
19 -33 -8 -45 -57 -137 -15 -128 59 3 29 1 34 -17 34 -11 0 -34 -7 -50 -15z
m-876 -1896 c74 -17 221 -91 221 -112 0 -5 -4 -6 -9 -3 -5 4 -7 -3 -4 -14 3
-11 9 -17 14 -14 5 3 7 10 4 15 -4 5 -1 9 4 9 6 0 11 -4 11 -8 0 -5 9 -19 20
-32 11 -13 20 -18 20 -13 0 6 -7 16 -15 23 -8 7 -12 17 -9 22 4 6 10 5 15 -3
6 -10 9 -10 9 -2 0 7 -6 16 -12 20 -7 4 -21 18 -31 30 -15 17 -17 26 -7 45 11
22 10 22 -4 4 -15 -18 -21 -15 -17 7 1 5 -3 6 -8 3 -5 -4 -12 -2 -16 4 -12 19
126 11 174 -10 24 -11 41 -23 38 -26 -3 -3 -16 -1 -29 6 -22 11 -22 10 -4 -4
11 -9 28 -13 39 -10 14 4 18 2 15 -7 -3 -8 -14 -14 -25 -14 -12 0 -24 -2 -27
-5 -9 -9 38 -6 52 4 28 17 115 -94 153 -195 11 -28 18 -54 15 -57 -3 -3 -10 6
-15 19 -5 13 -10 18 -10 10 -1 -8 7 -23 16 -33 10 -11 13 -22 7 -27 -31 -29
-318 -49 -447 -32 -96 13 -184 43 -179 61 1 6 -1 9 -6 6 -19 -12 -52 45 -105
179 -54 138 -55 140 -34 148 12 5 32 6 44 4 12 -2 20 0 17 4 -7 12 71 11 125
-2z"/>
<path d="M5683 8413 c4 -3 3 -11 -2 -17 -9 -12 5 -63 15 -53 3 3 1 14 -5 25
-10 19 -6 32 11 32 4 0 9 -10 9 -22 1 -18 2 -19 6 -5 5 19 -13 47 -30 47 -6 0
-7 -3 -4 -7z"/>
<path d="M6101 8392 c-16 -30 -14 -39 5 -16 15 18 15 18 10 -7 -4 -18 0 -31
12 -40 15 -12 16 -12 4 2 -7 9 -10 24 -6 32 3 9 1 24 -4 33 -9 16 -11 15 -21
-4z"/>
<path d="M6140 8391 c0 -6 4 -13 10 -16 6 -3 7 1 4 9 -7 18 -14 21 -14 7z"/>
<path d="M5920 8375 c7 -8 17 -12 23 -8 6 4 8 0 4 -9 -4 -11 1 -18 14 -21 10
-3 19 -1 19 5 0 6 7 8 15 4 8 -3 15 -3 15 -1 0 7 -40 26 -72 36 -25 7 -28 6
-18 -6z"/>
<path d="M6173 8351 c1 -12 6 -17 16 -13 10 4 11 7 3 10 -7 2 -10 8 -6 13 3 5
1 9 -5 9 -5 0 -9 -9 -8 -19z"/>
<path d="M6300 8310 c6 -11 8 -25 5 -30 -3 -5 1 -7 9 -4 14 5 13 9 -1 30 -19
29 -28 32 -13 4z"/>
<path d="M6067 8263 c-3 -5 6 -9 20 -10 19 -1 22 1 12 8 -17 11 -26 11 -32 2z"/>
<path d="M6320 8260 c-9 -6 -10 -10 -3 -10 6 0 15 5 18 10 8 12 4 12 -15 0z"/>
<path d="M5721 8250 c0 -8 4 -22 9 -30 12 -18 12 -2 0 25 -6 13 -9 15 -9 5z"/>
<path d="M6374 8195 c0 -14 4 -25 9 -25 10 0 9 38 -2 44 -5 3 -8 -5 -7 -19z"/>
<path d="M5750 8173 c0 -5 8 -17 17 -28 14 -18 15 -18 9 -2 -3 10 -6 23 -6 28
0 5 -4 9 -10 9 -5 0 -10 -3 -10 -7z"/>
<path d="M5780 8170 c0 -5 5 -10 11 -10 5 0 7 5 4 10 -3 6 -8 10 -11 10 -2 0
-4 -4 -4 -10z"/>
<path d="M5791 8124 c0 -11 3 -14 6 -6 3 7 2 16 -1 19 -3 4 -6 -2 -5 -13z"/>
<path d="M5920 8076 c0 -8 71 -12 76 -4 3 4 -13 8 -35 8 -23 0 -41 -2 -41 -4z"/>
<path d="M6140 8076 c0 -2 8 -10 17 -17 9 -8 14 -9 10 -2 -4 6 -1 14 5 16 7 3
3 6 -9 6 -13 1 -23 -1 -23 -3z"/>
<path d="M6286 8069 c3 -5 -1 -9 -8 -9 -8 0 -6 -5 5 -11 10 -6 21 -8 24 -5 4
3 0 6 -8 6 -8 1 -3 7 10 14 l24 14 -26 0 c-15 0 -24 -4 -21 -9z"/>
<path d="M5895 8060 c11 -5 29 -8 40 -8 16 0 15 2 -5 8 -34 11 -60 11 -35 0z"/>
<path d="M6060 8060 c0 -5 5 -10 11 -10 5 0 7 5 4 10 -3 6 -8 10 -11 10 -2 0
-4 -4 -4 -10z"/>
<path d="M6098 8053 c7 -3 16 -2 19 1 4 3 -2 6 -13 5 -11 0 -14 -3 -6 -6z"/>
<path d="M5988 8043 c12 -2 32 -2 45 0 12 2 2 4 -23 4 -25 0 -35 -2 -22 -4z"/>
<path d="M6113 8033 c15 -2 37 -2 50 0 12 2 0 4 -28 4 -27 0 -38 -2 -22 -4z"/>
<path d="M7035 9615 c-173 -31 -355 -107 -424 -176 -68 -68 -67 -133 4 -198
123 -114 394 -178 517 -123 110 49 226 227 236 361 6 87 -8 126 -50 140 -41
15 -196 12 -283 -4z"/>
<path d="M6367 9224 c-13 -14 -7 -43 12 -53 26 -14 50 13 34 37 -11 19 -35 27
-46 16z"/>
<path d="M6584 9076 c-10 -26 4 -48 28 -44 17 2 23 10 23 28 0 18 -6 26 -23
28 -13 2 -25 -3 -28 -12z"/>
<path d="M6342 9008 c-17 -17 -15 -36 6 -46 23 -12 42 -4 42 17 0 16 -18 41
-30 41 -3 0 -11 -5 -18 -12z"/>
<path d="M8361 6831 c-29 -10 -69 -35 -88 -54 l-35 -35 58 29 c66 32 183 53
254 44 l45 -5 -33 15 c-55 26 -140 28 -201 6z"/>
<path d="M6105 5315 c-71 -19 -98 -30 -145 -60 -54 -34 -44 -44 16 -16 41 20
126 48 234 79 l35 10 -45 0 c-25 1 -67 -5 -95 -13z"/>
</g>
</svg>
