<?xml version="1.0" standalone="no"?>
<!DOCTYPE svg PUBLIC "-//W3C//DTD SVG 20010904//EN"
 "http://www.w3.org/TR/2001/REC-SVG-20010904/DTD/svg10.dtd">
<svg version="1.0" xmlns="http://www.w3.org/2000/svg"
 width="1152.000000pt" height="1232.000000pt" viewBox="0 0 1152.000000 1232.000000"
 preserveAspectRatio="xMidYMid meet">

<g transform="translate(0.000000,1232.000000) scale(0.100000,-0.100000)"
fill="#000000" stroke="none">
<path d="M3042 10850 c-69 -31 -224 -125 -280 -169 -28 -23 -56 -41 -60 -41
-5 0 -56 -45 -112 -100 -57 -55 -108 -100 -113 -100 -5 0 -24 -16 -43 -35 -18
-19 -37 -35 -41 -35 -5 0 -19 -10 -33 -23 -14 -12 -50 -40 -80 -62 -30 -22
-57 -42 -60 -45 -3 -3 -23 -19 -45 -35 -22 -16 -47 -36 -56 -45 -9 -8 -33 -28
-54 -45 -49 -38 -90 -73 -124 -105 -15 -14 -44 -38 -65 -54 -20 -15 -58 -48
-83 -72 -24 -24 -49 -44 -54 -44 -5 0 -9 -5 -9 -10 0 -6 -20 -30 -45 -54 -25
-25 -45 -47 -45 -51 0 -3 -11 -21 -25 -39 -14 -18 -25 -40 -25 -48 0 -9 -6
-18 -12 -21 -7 -2 -26 -30 -41 -61 -16 -30 -33 -58 -38 -61 -5 -4 -9 -15 -9
-26 0 -10 -3 -19 -8 -19 -4 0 -12 -9 -17 -19 -6 -11 -19 -36 -30 -58 -10 -21
-25 -44 -32 -51 -7 -7 -13 -20 -13 -28 0 -8 -4 -14 -10 -14 -5 0 -10 -7 -10
-15 0 -9 -11 -33 -25 -55 -14 -22 -25 -46 -25 -54 0 -8 -3 -16 -7 -18 -11 -4
-43 -67 -43 -83 0 -7 -3 -15 -7 -17 -11 -4 -43 -67 -43 -84 0 -8 -4 -14 -10
-14 -5 0 -10 -7 -10 -15 0 -9 -11 -33 -25 -55 -14 -22 -25 -44 -25 -49 0 -6
-9 -25 -19 -43 -11 -18 -34 -69 -51 -113 -18 -44 -35 -82 -39 -85 -4 -3 -16
-27 -26 -53 -10 -26 -22 -50 -26 -53 -5 -3 -9 -14 -9 -25 0 -10 -4 -19 -10
-19 -5 0 -10 -7 -10 -15 0 -9 -11 -33 -25 -55 -14 -22 -25 -44 -25 -49 0 -6
-11 -31 -25 -57 -14 -26 -25 -55 -25 -65 0 -9 -3 -19 -7 -21 -9 -4 -43 -74
-43 -88 0 -15 69 -121 105 -161 18 -20 49 -68 70 -108 84 -160 266 -294 563
-415 359 -147 707 -184 884 -95 32 16 90 36 129 44 118 25 255 115 355 232
106 125 113 157 14 69 -72 -64 -141 -111 -225 -154 -257 -128 -627 -133 -978
-12 -370 127 -579 274 -646 455 -26 69 -26 91 -1 143 11 22 20 45 20 51 0 5
11 31 24 58 13 26 36 75 51 108 15 33 31 68 36 77 5 10 9 25 9 33 0 9 7 18 15
21 8 4 15 14 15 24 0 9 16 47 35 84 19 37 35 73 35 81 0 7 6 18 13 24 8 6 20
30 27 53 8 24 24 60 37 80 13 21 23 44 23 52 0 8 3 16 8 18 4 2 20 30 36 63
16 33 33 69 39 80 6 11 24 46 40 78 16 31 33 60 38 63 5 3 9 12 9 21 0 8 8 27
19 41 15 23 39 64 95 167 6 11 14 22 17 25 3 3 14 20 24 38 11 17 23 32 27 32
4 0 8 6 8 13 0 7 10 26 23 42 24 32 226 235 234 235 2 0 21 16 41 35 20 19 40
35 45 35 4 0 23 16 41 35 19 19 37 35 40 35 3 0 14 8 24 18 35 33 72 62 80 62
4 0 16 11 26 25 10 14 25 25 32 25 8 0 14 5 14 10 0 6 4 10 9 10 5 0 27 16 47
36 21 19 51 43 66 52 15 9 28 20 28 24 0 4 5 8 11 8 6 0 16 6 24 13 7 6 25 21
40 31 26 20 46 36 97 82 15 13 32 24 38 24 5 0 10 5 10 10 0 6 6 10 14 10 8 0
16 5 18 12 3 8 12 5 28 -10 13 -12 28 -22 33 -22 6 0 25 -11 43 -25 18 -14 36
-25 39 -25 3 0 21 -11 39 -25 18 -14 38 -25 44 -25 7 0 12 -4 12 -10 0 -5 9
-10 20 -10 11 0 23 -7 26 -15 4 -8 15 -15 25 -15 10 0 19 -4 19 -8 0 -4 23
-16 50 -27 28 -11 50 -23 50 -27 0 -4 11 -8 25 -8 14 0 25 -4 25 -8 0 -8 36
-25 110 -52 19 -7 42 -19 51 -27 8 -7 23 -13 32 -13 10 0 25 -4 35 -9 46 -23
95 -41 112 -41 11 0 20 -4 20 -9 0 -5 12 -11 28 -14 15 -2 43 -10 62 -17 63
-23 74 -27 111 -39 19 -6 44 -11 55 -11 10 0 28 -7 38 -15 11 -8 37 -15 58
-15 21 0 38 -4 38 -9 0 -5 24 -11 53 -14 74 -7 167 -29 167 -39 0 -4 24 -8 54
-8 30 0 57 -4 60 -9 3 -5 36 -12 73 -16 38 -4 73 -10 78 -15 6 -4 44 -11 85
-15 41 -3 111 -11 155 -15 185 -20 451 -40 615 -46 165 -6 290 -1 605 27 292
26 575 66 575 81 0 4 22 8 48 8 26 0 52 4 57 9 11 10 89 30 148 38 20 3 37 9
37 14 0 5 15 9 33 9 18 0 42 7 53 15 10 8 27 15 37 15 9 0 25 4 35 9 9 5 49
22 87 36 91 35 139 58 143 68 2 4 11 7 19 7 9 0 31 11 49 25 18 14 37 25 43
25 6 0 11 5 11 10 0 6 6 10 13 10 8 0 26 11 42 24 27 23 28 23 46 5 11 -11 19
-26 19 -34 0 -8 4 -15 9 -15 5 0 12 -8 15 -17 13 -33 31 -63 38 -63 5 0 8 -9
8 -20 0 -11 7 -23 15 -26 8 -4 15 -15 15 -25 0 -10 5 -19 10 -19 6 0 10 -5 10
-11 0 -6 6 -17 13 -24 29 -33 37 -45 37 -55 0 -5 16 -32 35 -59 19 -26 35 -53
35 -59 0 -5 7 -12 15 -16 8 -3 15 -10 15 -16 0 -12 52 -93 63 -98 4 -2 7 -10
7 -17 0 -7 3 -15 8 -17 4 -1 23 -28 42 -58 19 -30 43 -64 52 -74 10 -11 18
-24 18 -29 0 -4 11 -23 25 -41 14 -18 25 -38 25 -43 0 -6 6 -13 13 -16 7 -2
23 -25 36 -51 13 -25 28 -46 33 -46 4 0 8 -4 8 -10 0 -8 56 -96 70 -110 3 -3
12 -18 20 -34 8 -17 25 -41 38 -54 12 -14 22 -29 22 -35 0 -6 11 -25 25 -43
14 -18 25 -37 25 -43 0 -6 4 -11 9 -11 5 0 13 -10 17 -22 3 -12 15 -31 25 -42
11 -11 19 -28 19 -38 0 -10 7 -18 15 -18 8 0 15 -7 15 -15 0 -8 16 -39 35 -69
19 -30 35 -62 35 -71 0 -8 4 -15 10 -15 5 0 12 -11 16 -25 3 -14 9 -25 13 -25
4 0 15 -20 25 -45 11 -25 23 -45 28 -45 4 0 8 -11 8 -25 0 -14 5 -25 10 -25 6
0 10 -10 10 -23 0 -13 4 -27 9 -33 4 -5 16 -34 26 -64 10 -30 24 -67 31 -82 8
-14 14 -36 14 -47 0 -12 5 -21 10 -21 6 0 10 -16 10 -35 0 -19 5 -35 10 -35 6
0 10 -15 10 -34 0 -19 4 -37 9 -40 5 -3 12 -26 15 -51 4 -25 11 -45 17 -45 5
0 9 -17 9 -38 0 -21 4 -42 9 -48 4 -5 16 -43 26 -84 9 -41 21 -83 26 -92 5
-10 9 -32 9 -50 1 -18 7 -44 15 -58 8 -14 14 -39 15 -57 0 -17 5 -35 10 -38 6
-3 10 -28 10 -54 0 -26 4 -51 9 -56 9 -10 25 -76 40 -165 4 -25 11 -52 16 -59
8 -15 21 -103 31 -228 3 -35 9 -63 14 -63 5 0 11 -30 15 -67 3 -38 11 -81 17
-96 6 -15 11 -54 11 -85 0 -31 3 -61 7 -67 4 -5 11 -44 14 -85 7 -78 24 -140
38 -140 4 0 8 -36 8 -79 0 -44 4 -82 9 -85 4 -3 11 -38 15 -78 4 -40 11 -77
16 -82 6 -6 10 -24 10 -41 0 -17 4 -35 9 -40 5 -6 12 -48 14 -95 2 -47 12
-125 21 -175 10 -49 21 -121 25 -160 5 -38 11 -77 15 -85 6 -14 21 -140 32
-260 3 -30 9 -64 14 -75 5 -11 11 -38 13 -60 4 -39 21 -124 37 -195 10 -40 29
-220 37 -330 2 -41 8 -84 13 -95 41 -100 53 -165 57 -315 3 -85 9 -159 14
-164 5 -6 9 -74 9 -153 0 -105 4 -153 15 -180 11 -26 15 -75 15 -190 0 -85 4
-163 10 -173 15 -27 16 -783 1 -788 -7 -2 -11 -32 -11 -78 0 -44 -6 -90 -15
-111 -8 -19 -15 -46 -15 -59 0 -69 -275 -169 -626 -228 -530 -89 -1204 -122
-2299 -113 -658 6 -841 11 -1460 37 -1335 57 -3632 231 -3761 285 -36 15 -52
42 -64 110 -4 22 -17 85 -29 139 -17 81 -21 132 -21 280 l0 181 39 113 c21 62
43 118 49 124 7 7 12 18 12 25 0 7 4 21 9 31 6 9 17 38 27 65 9 26 21 47 25
47 5 0 9 11 9 25 0 14 5 25 10 25 6 0 10 5 10 10 0 6 11 33 25 62 14 28 25 57
25 64 0 6 7 17 15 24 8 7 15 23 15 36 0 13 5 24 10 24 6 0 10 5 10 12 0 6 18
50 41 97 22 47 45 97 51 111 6 14 14 33 19 42 5 10 9 25 9 33 0 8 4 15 9 15 5
0 13 10 16 23 6 21 16 44 55 132 17 39 43 99 60 140 4 11 13 36 20 55 7 19 22
58 35 85 25 53 52 131 81 230 10 33 21 62 24 65 8 6 31 57 50 110 7 19 18 49
25 65 6 17 17 46 24 65 7 19 23 62 36 95 33 87 25 99 -72 120 -43 9 -85 19
-94 21 -22 6 -60 -54 -53 -82 3 -11 -2 -33 -10 -49 -9 -17 -16 -39 -16 -51 0
-11 -9 -29 -19 -41 -23 -24 -71 -123 -71 -146 0 -9 -16 -50 -35 -91 -19 -41
-35 -82 -35 -91 0 -9 -7 -23 -15 -31 -8 -9 -15 -26 -15 -40 0 -13 -4 -24 -10
-24 -5 0 -10 -11 -10 -25 0 -14 -4 -25 -9 -25 -5 0 -12 -16 -15 -35 -4 -19
-11 -35 -16 -35 -6 0 -10 -7 -10 -16 0 -8 -16 -48 -35 -88 -19 -40 -35 -80
-35 -88 0 -9 -7 -21 -15 -28 -8 -7 -15 -18 -15 -26 0 -7 -16 -43 -35 -81 -19
-37 -35 -72 -35 -78 0 -5 -11 -32 -25 -60 -13 -27 -25 -62 -25 -76 0 -15 -15
-42 -35 -65 -19 -21 -35 -48 -35 -60 0 -23 -26 -80 -41 -89 -5 -4 -9 -15 -9
-26 0 -10 -4 -19 -8 -19 -4 0 -16 -24 -26 -53 -11 -28 -23 -56 -27 -61 -5 -6
-9 -20 -9 -33 0 -13 -3 -23 -7 -23 -5 0 -16 -21 -27 -48 -10 -26 -27 -67 -38
-91 -10 -24 -28 -67 -39 -95 -12 -28 -24 -55 -28 -61 -24 -32 -55 -234 -47
-306 4 -30 11 -94 16 -144 9 -89 17 -137 38 -225 6 -25 18 -80 27 -123 9 -42
22 -83 28 -90 7 -6 25 -31 40 -54 57 -84 130 -116 311 -138 371 -45 1339 -126
2141 -180 2745 -182 4710 -166 5574 46 260 64 390 126 504 241 42 44 84 95 92
113 21 52 15 1013 -9 1290 -10 110 -20 270 -23 355 -2 85 -9 159 -14 165 -5 5
-9 38 -9 75 0 36 -5 83 -12 105 -6 22 -14 101 -19 175 -4 74 -13 171 -18 215
-5 44 -14 125 -21 180 -6 55 -15 108 -20 117 -6 10 -10 42 -10 71 0 30 -3 57
-8 61 -6 7 -18 81 -38 246 -3 25 -10 49 -15 55 -5 5 -9 40 -9 78 0 37 -5 78
-12 90 -7 12 -16 49 -20 82 -20 146 -50 308 -59 315 -4 3 -9 28 -12 55 -3 28
-12 79 -22 115 -15 60 -22 92 -41 190 -4 19 -13 44 -20 55 -8 11 -14 36 -14
57 0 21 -4 38 -10 38 -5 0 -10 12 -10 26 0 24 -39 197 -61 270 -5 17 -9 47 -9
67 0 19 -5 48 -11 64 -6 15 -15 62 -21 103 -16 125 -26 191 -39 276 -7 45 -9
89 -6 98 6 14 28 16 178 16 l172 0 -7 41 c-8 53 -53 157 -100 234 -44 72 -181
341 -226 445 -127 290 -209 577 -245 860 -23 172 -34 512 -22 639 9 96 9 105
-8 117 -10 8 -34 14 -52 14 -18 0 -41 4 -51 9 -26 13 -84 32 -112 38 -24 4
-41 10 -105 38 -16 7 -46 18 -65 25 -19 7 -58 23 -87 36 -28 13 -57 24 -63 24
-6 0 -27 10 -48 23 -21 12 -63 35 -95 52 -31 16 -57 33 -57 37 0 4 -9 8 -21 8
-11 0 -27 6 -34 13 -33 29 -45 37 -55 37 -5 0 -10 5 -10 10 0 6 -6 10 -14 10
-8 0 -16 7 -20 15 -3 8 -12 15 -21 15 -8 0 -15 5 -15 10 0 6 -5 10 -11 10 -7
0 -22 11 -35 25 -13 14 -27 25 -31 25 -5 0 -15 8 -24 18 -8 9 -27 26 -42 37
-15 11 -27 25 -27 32 0 7 -5 13 -11 13 -17 0 -89 88 -89 109 0 6 -3 11 -7 11
-15 0 -43 62 -43 95 0 33 28 95 43 95 4 0 7 10 7 23 0 13 5 28 12 35 7 7 11
54 9 140 -1 126 -3 132 -36 200 -36 74 -68 105 -111 105 -59 0 -73 -59 -30
-121 25 -36 30 -60 53 -223 3 -21 0 -40 -6 -43 -6 -4 -11 -16 -11 -27 0 -48
-94 -158 -182 -211 -29 -17 -55 -34 -58 -38 -7 -7 -44 -24 -102 -47 -27 -10
-48 -21 -48 -25 0 -5 -6 -8 -13 -8 -12 0 -99 -37 -139 -60 -10 -6 -26 -10 -37
-10 -10 0 -24 -7 -31 -15 -7 -8 -25 -15 -41 -15 -15 0 -31 -4 -34 -10 -3 -5
-19 -10 -35 -10 -16 0 -31 -4 -34 -9 -3 -4 -29 -11 -57 -14 -28 -4 -56 -10
-63 -15 -6 -5 -36 -12 -66 -15 -30 -3 -91 -13 -135 -22 -83 -18 -166 -30 -295
-43 -42 -5 -82 -12 -90 -18 -32 -20 -1084 -44 -1104 -24 -5 5 -34 10 -63 10
-30 0 -70 7 -90 15 -21 9 -67 15 -114 15 -44 0 -79 4 -79 9 0 4 -19 11 -42 14
-24 4 -77 14 -118 22 -41 9 -98 20 -127 25 -28 4 -57 11 -63 15 -15 9 -112 26
-187 32 -35 2 -63 9 -63 14 0 5 -17 9 -39 9 -22 0 -44 6 -51 15 -7 8 -23 15
-36 15 -13 0 -24 5 -24 10 0 6 -15 10 -34 10 -19 0 -38 5 -41 10 -3 6 -17 10
-29 10 -13 0 -29 7 -36 15 -7 8 -25 15 -40 15 -15 0 -33 7 -40 15 -7 8 -25 15
-41 15 -16 0 -29 5 -29 10 0 6 -12 10 -27 11 -16 0 -41 9 -58 20 -16 10 -37
22 -45 25 -78 33 -360 178 -360 185 0 5 -6 9 -14 9 -18 0 -76 32 -76 43 0 4
-7 7 -15 7 -8 0 -15 5 -15 10 0 6 -6 10 -12 10 -7 0 -28 14 -47 30 -28 25 -31
32 -21 45 20 25 139 100 226 143 93 47 124 79 124 129 0 75 -77 104 -168 63z
m4996 -1317 c7 -7 20 -13 28 -13 8 0 14 -4 14 -10 0 -5 6 -10 14 -10 17 0 80
-32 84 -42 2 -5 9 -8 15 -8 10 0 79 -30 139 -61 10 -5 26 -9 35 -9 10 0 27 -7
37 -15 11 -8 30 -15 43 -15 13 0 23 -4 23 -10 0 -5 7 -10 16 -10 21 0 117 -31
128 -41 6 -5 20 -9 33 -9 13 0 40 -5 61 -12 l38 -12 0 -300 c-1 -315 8 -417
55 -631 58 -266 181 -566 358 -873 39 -67 71 -125 71 -127 0 -10 -106 -4 -151
8 -60 16 -76 30 -83 75 -3 20 -9 62 -13 92 -5 30 -13 62 -18 70 -5 8 -12 34
-17 57 -16 84 -26 129 -42 183 -10 30 -21 71 -26 90 -21 81 -36 129 -43 136
-4 4 -7 18 -7 30 0 13 -4 26 -10 29 -5 3 -10 15 -10 25 0 11 -7 36 -16 57 -9
21 -20 47 -24 58 -5 11 -15 36 -24 57 -9 20 -16 41 -16 47 0 6 -4 11 -10 11
-5 0 -10 6 -10 14 0 13 -29 75 -40 86 -3 3 -12 19 -20 35 -8 17 -36 65 -62
108 -27 43 -48 81 -48 84 0 4 -11 21 -25 39 -14 18 -25 37 -25 43 0 6 -4 11
-9 11 -5 0 -12 11 -15 25 -4 14 -11 25 -16 25 -6 0 -10 7 -10 15 0 8 -4 15
-10 15 -5 0 -10 9 -10 20 0 11 -4 20 -8 20 -5 0 -17 16 -28 35 -10 19 -22 35
-26 35 -5 0 -8 4 -8 9 0 9 -111 174 -140 208 -5 7 -10 15 -10 18 0 4 -6 13
-12 20 -30 33 -38 45 -38 55 0 5 -4 10 -10 10 -5 0 -10 6 -10 14 0 8 -11 28
-25 44 -14 17 -25 33 -25 37 0 3 -11 21 -25 39 -14 18 -25 36 -25 40 0 3 -12
24 -26 46 -14 21 -23 43 -20 49 7 11 35 3 54 -16z"/>
</g>
</svg>
