<?xml version="1.0" standalone="no"?>
<!DOCTYPE svg PUBLIC "-//W3C//DTD SVG 20010904//EN"
 "http://www.w3.org/TR/2001/REC-SVG-20010904/DTD/svg10.dtd">
<svg version="1.0" xmlns="http://www.w3.org/2000/svg"
 width="1152.000000pt" height="1232.000000pt" viewBox="0 0 1152.000000 1232.000000"
 preserveAspectRatio="xMidYMid meet">

<g transform="translate(0.000000,1232.000000) scale(0.100000,-0.100000)"
fill="#000000" stroke="none">
<path d="M482 10558 c-11 -24 -23 -53 -27 -65 -3 -13 -11 -23 -16 -23 -5 0 -9
-13 -9 -30 0 -16 -4 -30 -10 -30 -5 0 -13 -12 -16 -27 -4 -16 -12 -37 -18 -48
-27 -49 -55 -326 -37 -376 6 -17 13 -78 17 -137 4 -59 11 -112 15 -118 5 -6
12 -40 16 -75 3 -34 12 -74 20 -89 7 -14 13 -41 13 -60 0 -19 7 -48 15 -64 8
-15 15 -43 15 -62 0 -18 4 -35 9 -38 4 -3 11 -28 15 -55 4 -28 11 -53 16 -56
6 -3 10 -16 10 -29 0 -13 12 -45 26 -72 15 -27 43 -100 64 -162 21 -62 49
-132 63 -155 13 -23 29 -69 36 -102 18 -92 41 -233 50 -303 5 -35 14 -69 20
-75 6 -6 11 -31 11 -56 0 -26 7 -59 15 -75 8 -15 15 -49 15 -75 0 -25 7 -55
15 -65 9 -11 15 -41 15 -68 0 -27 7 -65 15 -85 8 -19 15 -56 15 -82 0 -25 7
-59 15 -75 8 -15 15 -54 15 -85 0 -31 7 -85 16 -121 24 -96 24 -553 1 -625 -9
-27 -17 -82 -17 -120 0 -39 -5 -76 -11 -82 -6 -6 -13 -51 -16 -100 -3 -48 -11
-102 -19 -120 -8 -17 -14 -60 -14 -96 0 -35 -7 -84 -15 -107 -8 -23 -15 -71
-15 -105 0 -34 -7 -79 -15 -98 -8 -20 -15 -66 -15 -102 0 -37 -6 -76 -12 -88
-7 -12 -16 -56 -20 -97 -11 -117 -32 -264 -39 -275 -4 -5 -10 -47 -14 -93 -4
-45 -11 -84 -15 -87 -4 -3 -11 -43 -15 -90 -4 -47 -10 -85 -15 -85 -4 0 -11
-38 -15 -85 -4 -47 -10 -87 -15 -90 -4 -3 -11 -40 -15 -82 -4 -43 -10 -82 -14
-88 -3 -5 -11 -46 -18 -90 -18 -122 -40 -250 -43 -250 -3 0 -29 -153 -38 -230
-5 -39 -14 -80 -20 -92 -7 -12 -12 -43 -12 -70 -1 -26 -7 -59 -15 -73 -8 -14
-14 -47 -15 -73 0 -26 -7 -64 -15 -84 -8 -19 -15 -53 -15 -75 0 -21 -7 -55
-15 -75 -8 -19 -15 -54 -15 -77 -1 -22 -7 -52 -15 -66 -8 -14 -14 -44 -15 -66
0 -23 -7 -61 -15 -84 -8 -23 -15 -57 -15 -75 0 -18 -7 -49 -15 -68 -8 -20 -15
-52 -15 -71 0 -20 -6 -53 -14 -73 -8 -21 -17 -67 -21 -103 -3 -36 -19 -117
-34 -180 -20 -83 -25 -119 -18 -128 18 -23 108 -61 159 -68 26 -4 48 -10 48
-15 0 -4 17 -11 37 -14 21 -3 46 -10 55 -16 10 -5 33 -9 51 -9 18 0 42 -7 53
-15 10 -8 30 -15 42 -15 13 0 38 -6 55 -14 18 -8 50 -17 72 -20 22 -3 41 -10
43 -16 2 -5 16 -10 31 -10 15 0 36 -7 47 -15 10 -8 33 -15 51 -15 17 0 38 -7
47 -15 8 -8 24 -15 35 -15 11 0 38 -6 58 -14 21 -7 72 -24 113 -36 41 -13 79
-27 85 -31 5 -5 17 -9 27 -9 9 0 32 -6 50 -14 42 -17 94 -35 133 -46 17 -5 75
-25 130 -45 55 -20 111 -41 125 -45 231 -78 811 -318 1160 -479 203 -94 465
-231 620 -323 69 -41 157 -92 195 -113 39 -22 126 -74 194 -117 69 -43 139
-80 156 -84 96 -18 166 87 119 177 -12 25 -13 37 -3 67 6 20 15 41 20 46 5 6
9 18 9 27 0 9 7 22 15 29 8 7 15 23 15 36 0 13 4 24 10 24 5 0 13 12 16 26 4
14 19 50 35 81 16 31 29 65 29 75 0 10 7 21 15 24 8 4 15 14 15 24 0 10 7 32
15 49 8 17 22 45 30 62 8 17 15 36 15 44 0 7 7 18 15 25 8 7 15 21 15 30 0 10
8 33 17 52 9 18 22 45 30 60 7 14 13 33 13 41 0 8 7 20 15 27 8 7 15 23 15 36
0 12 4 26 10 29 5 3 14 24 20 45 6 22 15 40 20 40 6 0 10 14 10 30 0 17 4 30
9 30 5 0 12 13 16 30 4 16 11 32 16 35 5 4 9 14 9 23 1 9 9 35 20 57 11 22 19
46 20 53 0 6 4 12 9 12 5 0 13 14 16 32 4 18 11 39 16 48 10 17 40 89 59 140
7 19 26 63 42 98 16 34 31 76 35 92 3 17 9 30 14 30 5 0 9 13 9 29 0 16 6 31
15 35 9 3 15 18 15 34 0 16 7 35 15 42 8 7 15 23 15 37 0 13 7 26 15 29 8 4
15 18 15 33 0 15 7 36 15 47 8 10 15 29 15 42 0 12 7 25 15 28 8 4 15 17 15
29 0 13 7 37 15 54 8 17 22 45 30 62 8 17 15 39 15 49 0 9 7 23 15 30 8 7 15
23 15 35 0 12 7 28 15 35 8 7 15 25 15 41 0 16 4 29 10 29 5 0 12 12 16 27 6
27 22 69 50 126 8 16 14 39 14 52 0 12 7 25 15 29 8 3 15 17 15 31 0 14 4 25
10 25 5 0 12 12 16 28 3 15 9 36 14 47 5 11 18 41 29 67 12 26 21 54 21 62 0
8 4 17 9 21 5 3 12 19 16 35 4 17 10 30 15 30 5 0 12 15 15 32 4 18 11 38 15
43 4 6 11 25 15 42 3 18 11 33 16 33 5 0 9 6 9 13 1 6 9 30 20 52 11 22 19 48
20 57 0 9 4 19 9 23 5 3 12 19 16 35 4 17 11 30 16 30 5 0 9 14 9 30 0 17 4
30 10 30 5 0 14 18 20 40 6 22 15 40 20 40 6 0 10 11 10 24 0 13 7 29 15 36 8
7 15 23 15 35 0 12 7 28 15 35 8 7 15 21 15 31 0 11 7 19 17 19 15 0 16 -28 7
-367 -4 -203 -8 -534 -8 -738 0 -524 21 -1549 33 -1685 6 -63 15 -288 20 -500
9 -375 10 -387 33 -430 28 -54 77 -83 126 -76 18 3 324 149 680 324 810 401
1069 520 1387 640 394 148 797 245 1300 312 136 18 152 22 172 45 13 14 25 38
29 53 3 15 16 59 29 97 40 122 55 177 55 201 0 13 4 24 8 24 4 0 13 24 19 53
16 77 33 140 43 158 5 9 11 37 15 63 4 25 11 49 16 51 4 3 11 26 15 50 3 25
10 48 15 51 5 3 9 22 9 43 0 20 7 46 15 57 8 10 15 35 15 54 0 19 7 44 15 54
8 11 15 34 15 51 0 17 6 39 14 50 7 11 16 42 19 70 3 27 10 51 16 53 6 2 11
21 11 42 0 21 6 43 15 50 8 7 15 28 15 47 0 19 6 49 14 66 8 18 16 46 19 62 3
17 9 44 15 60 29 84 42 132 42 155 1 14 7 36 15 50 8 14 14 39 15 57 0 17 5
33 11 35 6 2 14 27 17 56 2 28 11 57 18 63 8 6 14 30 14 53 1 22 7 52 15 66 8
14 14 37 15 51 0 15 7 43 15 62 8 20 15 49 15 64 0 15 7 37 15 47 8 11 15 37
15 57 0 21 5 41 10 44 5 3 10 19 10 34 0 15 12 65 26 112 14 46 30 107 35 134
5 28 14 59 19 70 5 11 11 41 15 67 3 26 10 50 16 53 5 4 9 16 9 28 0 12 7 35
15 51 8 15 15 33 15 40 0 14 39 145 50 167 5 9 11 41 15 72 4 32 11 57 15 57
4 0 10 26 12 57 3 31 10 59 16 61 7 2 12 23 12 46 0 23 7 51 15 62 8 10 15 37
15 59 0 22 7 49 15 59 8 11 15 38 15 61 0 23 7 50 15 61 8 10 15 34 15 52 0
18 7 49 15 69 8 19 15 48 15 64 0 16 6 46 14 66 12 35 25 89 45 188 4 22 13
50 19 62 7 12 12 37 12 56 0 19 7 51 15 70 8 20 15 52 15 70 0 19 7 51 15 70
8 20 15 51 15 69 1 18 7 44 15 58 8 14 14 46 15 71 0 25 7 54 15 65 8 11 15
42 15 74 0 32 7 63 15 74 8 11 15 36 15 57 0 20 7 53 15 72 8 20 15 59 15 86
0 27 4 52 9 55 5 3 12 37 16 76 4 39 11 72 15 75 4 3 11 38 15 80 4 41 10 77
15 80 4 3 11 41 15 85 4 44 10 80 15 80 4 0 10 32 14 70 3 39 10 78 15 88 5 9
14 55 20 102 23 169 37 265 43 280 3 8 11 56 18 105 6 50 18 140 26 200 8 61
19 157 23 215 5 58 13 121 20 140 6 19 11 72 11 117 0 45 6 110 14 145 10 42
15 139 17 288 3 342 3 357 -21 370 -24 13 -170 -15 -340 -65 -185 -55 -583
-160 -735 -194 -165 -37 -265 -60 -435 -100 -269 -65 -765 -147 -1140 -190
-973 -112 -1991 -127 -3090 -46 -674 50 -1535 156 -2315 285 -788 131 -1271
240 -1945 441 -151 45 -311 91 -355 104 -44 12 -115 36 -158 54 -43 17 -82 31
-86 31 -5 0 -18 -19 -29 -42z m625 -333 c766 -244 1570 -430 2663 -616 195
-33 356 -62 358 -64 9 -8 -100 -655 -113 -676 -6 -8 -209 28 -675 121 -961
192 -1584 340 -2320 553 l-285 82 -14 70 c-17 85 -27 481 -12 499 6 7 13 31
17 54 4 23 11 45 15 48 5 3 9 13 9 24 0 17 5 16 78 -7 42 -13 168 -53 279 -88z
m9703 -467 c-1 -51 -7 -122 -15 -158 -8 -36 -14 -91 -15 -122 l0 -58 -31 0
c-17 0 -183 -40 -368 -89 -790 -210 -1287 -326 -1836 -426 -132 -24 -261 -46
-286 -50 l-47 -7 -6 104 c-4 56 -11 168 -17 247 -8 110 -8 145 1 151 6 4 52
10 102 14 293 22 918 111 1241 176 323 66 784 178 1087 264 85 25 163 45 173
45 15 1 17 -10 17 -91z m-6439 -247 c15 -5 8 -50 -58 -386 -70 -360 -118 -549
-150 -595 -16 -23 -41 -25 -92 -9 -20 7 -42 13 -48 15 -9 2 -4 24 17 72 58
136 91 294 181 855 l11 69 62 -7 c33 -4 68 -10 77 -14z m469 -60 c452 -56 758
-84 1258 -117 89 -5 102 -8 98 -23 -27 -92 -34 -248 -22 -485 l8 -159 -318 6
c-329 6 -641 28 -1029 72 -247 28 -473 60 -481 68 -3 2 11 78 30 168 19 90 49
238 66 329 36 194 36 191 52 185 7 -2 159 -22 338 -44z m-3725 -114 c442 -134
934 -271 1355 -377 113 -29 222 -56 243 -61 45 -12 46 -21 16 -175 -76 -396
-253 -689 -533 -882 -149 -103 -383 -202 -531 -223 -33 -4 -93 -13 -134 -19
-41 -6 -124 -12 -185 -13 l-111 -2 -12 90 c-6 50 -23 180 -37 290 -37 279 -78
447 -176 710 -27 72 -56 162 -65 200 -10 39 -24 82 -31 97 -8 15 -14 37 -14
48 0 12 -7 28 -15 36 -8 9 -15 30 -15 49 0 18 -5 35 -10 37 -6 2 -13 21 -17
43 -3 22 -10 42 -14 46 -5 3 -13 27 -18 53 -5 26 -14 53 -20 59 -6 6 -11 30
-11 54 l0 42 43 -13 c23 -7 155 -47 292 -89z m6969 -34 c28 -183 38 -792 15
-883 l-13 -51 -80 3 -81 3 1 55 c0 30 7 129 15 220 15 181 18 478 6 608 l-7
82 69 0 69 0 6 -37z m-232 -38 c12 -113 21 -362 14 -417 l-7 -55 -167 -21
c-155 -20 -447 -51 -637 -67 l-80 -7 53 47 c54 49 86 99 107 168 10 36 16 40
76 61 48 16 64 27 64 41 0 19 -11 24 -92 45 -31 8 -43 16 -43 29 0 41 -63 143
-112 182 l-50 39 249 1 c136 1 311 5 388 9 77 4 160 7 185 6 l45 -1 7 -60z
m-1294 49 l31 -6 -42 -32 c-85 -65 -137 -164 -137 -262 0 -23 9 -71 20 -107
24 -77 87 -153 162 -196 l48 -28 -91 -6 c-51 -4 -136 -7 -189 -7 l-97 0 -7 38
c-16 100 -3 536 19 600 5 13 223 18 283 6z m389 -60 c163 -79 198 -299 68
-442 -138 -153 -421 -113 -517 73 -30 57 -36 162 -13 222 24 62 86 128 140
148 105 41 237 40 322 -1z m3783 -213 c-5 -11 -10 -50 -10 -88 -1 -37 -7 -86
-15 -108 -8 -22 -15 -69 -15 -105 0 -38 -6 -77 -15 -94 -8 -15 -15 -54 -15
-86 0 -32 -7 -77 -15 -100 -8 -23 -15 -62 -15 -85 0 -23 -7 -62 -15 -85 -8
-23 -15 -61 -15 -85 0 -23 -7 -64 -15 -91 -8 -27 -15 -63 -15 -80 0 -17 -7
-51 -15 -74 -8 -23 -15 -54 -15 -67 0 -30 -9 -28 -126 28 -248 117 -412 293
-474 509 -18 59 -23 111 -27 246 -5 162 -4 172 13 177 11 4 141 38 289 77 149
39 315 83 370 99 55 16 113 30 128 30 24 1 26 -1 17 -18z m-3505 -31 c-28 -12
-75 -12 -75 0 0 6 21 10 48 9 35 0 42 -3 27 -9z m-4020 -231 c143 -33 363 -82
488 -109 126 -27 231 -51 234 -53 2 -3 -3 -19 -11 -36 -23 -43 -20 -78 8 -106
27 -27 68 -40 174 -55 95 -13 118 -3 152 67 14 29 28 55 32 58 3 3 102 -10
219 -29 515 -85 995 -133 1439 -145 l245 -6 -1 -740 c-1 -800 -7 -901 -54
-1002 -74 -158 -123 -260 -131 -275 -5 -10 -9 -25 -9 -33 0 -8 -4 -15 -10 -15
-5 0 -14 -18 -20 -40 -6 -22 -15 -40 -20 -40 -6 0 -10 -11 -10 -24 0 -13 -7
-29 -15 -36 -8 -7 -15 -23 -15 -37 0 -13 -7 -26 -15 -29 -8 -4 -15 -15 -15
-25 0 -11 -9 -36 -20 -56 -11 -21 -20 -43 -20 -50 0 -7 -4 -13 -10 -13 -5 0
-10 -8 -10 -18 0 -10 -7 -27 -15 -38 -8 -10 -15 -29 -15 -40 0 -12 -7 -27 -15
-34 -8 -7 -15 -20 -15 -29 0 -10 -7 -26 -15 -37 -8 -10 -15 -29 -15 -42 0 -12
-7 -25 -15 -28 -8 -4 -15 -18 -15 -34 0 -16 -7 -30 -15 -34 -8 -3 -15 -16 -15
-30 0 -14 -7 -31 -15 -40 -8 -8 -15 -24 -15 -35 0 -11 -4 -22 -9 -25 -10 -7
-51 -87 -51 -101 0 -4 -13 -37 -30 -72 -16 -34 -30 -69 -30 -77 0 -7 -7 -19
-15 -26 -8 -7 -15 -23 -15 -36 0 -13 -4 -24 -10 -24 -5 0 -14 -18 -20 -40 -6
-21 -15 -42 -20 -45 -6 -3 -10 -17 -10 -29 0 -13 -7 -29 -15 -36 -8 -7 -15
-23 -15 -36 0 -13 -4 -24 -10 -24 -5 0 -10 -5 -10 -11 0 -7 -10 -33 -21 -58
-12 -25 -26 -57 -31 -71 -6 -14 -16 -38 -23 -55 -8 -16 -16 -40 -20 -52 -3
-13 -10 -23 -14 -23 -5 0 -11 -18 -15 -40 -3 -22 -11 -40 -16 -40 -6 0 -10
-11 -10 -24 0 -14 -7 -31 -15 -39 -7 -8 -17 -28 -21 -43 -4 -16 -17 -48 -29
-70 -12 -23 -25 -54 -29 -68 -3 -14 -11 -26 -16 -26 -6 0 -10 -9 -10 -21 0
-11 -6 -33 -13 -47 -8 -15 -21 -42 -30 -60 -9 -19 -17 -42 -17 -52 0 -9 -7
-23 -15 -30 -8 -7 -15 -26 -15 -42 0 -16 -6 -31 -15 -34 -8 -4 -15 -17 -15
-29 0 -13 -7 -30 -15 -39 -8 -8 -15 -23 -15 -33 0 -10 -6 -27 -14 -38 -7 -11
-16 -32 -20 -47 -3 -16 -11 -28 -16 -28 -6 0 -10 -7 -10 -15 0 -8 -7 -31 -16
-52 -9 -21 -23 -51 -30 -68 -7 -16 -20 -46 -28 -67 -9 -20 -16 -43 -16 -51 0
-8 -7 -17 -15 -21 -8 -3 -15 -14 -15 -25 0 -11 -6 -32 -14 -48 -8 -15 -22 -46
-32 -68 -9 -22 -23 -52 -31 -67 -7 -14 -13 -33 -13 -41 0 -8 -7 -20 -15 -27
-8 -7 -15 -23 -15 -35 0 -12 -7 -28 -15 -35 -8 -7 -15 -23 -15 -36 0 -13 -4
-24 -10 -24 -5 0 -10 -11 -10 -24 0 -13 -7 -29 -15 -36 -8 -7 -15 -21 -15 -31
0 -10 -5 -21 -10 -24 -6 -3 -15 -26 -21 -51 -6 -24 -15 -44 -20 -44 -5 0 -9
-9 -9 -20 0 -11 -9 -37 -20 -57 -11 -21 -20 -43 -20 -50 0 -7 -4 -13 -10 -13
-5 0 -10 -9 -10 -19 0 -11 -6 -26 -14 -33 -7 -8 -17 -29 -21 -46 -3 -18 -11
-32 -16 -32 -5 0 -9 -11 -9 -24 0 -13 -7 -29 -15 -36 -8 -7 -15 -23 -15 -36 0
-12 -7 -29 -15 -38 -8 -8 -15 -26 -15 -39 0 -14 -7 -27 -15 -31 -8 -3 -15 -16
-15 -29 0 -14 -7 -30 -15 -37 -8 -7 -15 -20 -15 -29 0 -9 -6 -25 -14 -36 -7
-11 -16 -32 -20 -47 -3 -16 -11 -28 -16 -28 -6 0 -10 -13 -10 -29 0 -16 -3
-31 -7 -33 -14 -6 -113 -218 -113 -241 0 -9 -4 -17 -9 -17 -5 0 -12 -14 -16
-30 -4 -17 -10 -30 -15 -30 -5 0 -11 -14 -15 -30 -4 -17 -11 -30 -16 -30 -5 0
-9 -5 -9 -12 0 -12 -30 -81 -56 -130 -8 -14 -14 -33 -14 -42 0 -9 -4 -16 -10
-16 -5 0 -10 -7 -10 -15 0 -8 -9 -32 -20 -52 -11 -21 -20 -43 -20 -50 0 -22
-19 -15 -104 36 -657 395 -1761 861 -2981 1258 -110 36 -208 69 -217 74 -10 5
-27 9 -38 9 -11 0 -24 8 -27 17 -7 17 6 124 32 258 22 118 45 241 58 320 7 39
15 75 19 81 4 6 10 42 14 80 4 38 10 71 15 74 4 3 12 39 17 80 6 41 16 98 22
125 31 136 40 185 40 213 0 17 4 34 10 37 5 3 10 29 10 56 0 27 7 66 15 86 8
19 15 53 15 75 0 21 7 55 15 75 8 19 15 53 15 75 0 22 5 49 11 60 7 12 15 55
20 96 5 42 13 80 19 86 5 5 10 35 10 66 0 30 7 68 15 84 8 15 15 46 15 67 0
21 6 58 14 81 8 24 16 70 19 102 3 32 11 64 16 69 6 6 11 34 11 62 1 27 7 68
15 90 8 22 15 60 15 85 1 25 7 63 15 85 8 22 15 63 15 91 0 29 7 65 15 80 8
16 15 54 15 85 0 31 7 73 15 92 8 20 15 65 15 99 1 36 7 74 15 88 9 15 15 54
15 100 0 50 6 82 15 94 11 14 15 45 15 104 0 48 5 92 12 105 7 12 16 67 20
122 8 126 25 300 38 389 6 38 13 139 16 225 2 86 7 189 10 229 l6 72 114 0
c377 0 736 97 993 267 220 147 368 357 472 673 31 96 89 339 89 374 0 4 8 5
18 2 9 -3 134 -33 277 -67z m6585 -11 c0 -71 25 -226 50 -316 78 -280 263
-473 590 -616 l86 -37 -4 -67 c-3 -37 -9 -70 -15 -73 -5 -4 -13 -38 -16 -75
-4 -38 -12 -79 -19 -91 -7 -12 -12 -43 -12 -70 0 -26 -7 -57 -15 -67 -9 -11
-15 -42 -15 -70 0 -29 -7 -59 -15 -70 -8 -11 -15 -41 -15 -67 0 -26 -4 -50 -9
-53 -5 -3 -12 -34 -16 -68 -4 -34 -11 -69 -16 -78 -8 -14 -16 -52 -41 -197 -6
-35 -15 -63 -19 -63 -4 0 -10 -27 -14 -60 -4 -33 -11 -62 -15 -65 -4 -3 -11
-33 -15 -67 -4 -34 -11 -69 -16 -78 -8 -15 -19 -58 -42 -172 -7 -31 -15 -60
-19 -64 -4 -3 -10 -33 -14 -66 -4 -32 -11 -61 -15 -64 -5 -3 -9 -24 -9 -47 0
-23 -7 -51 -15 -61 -8 -11 -15 -36 -15 -55 -1 -20 -7 -47 -15 -61 -8 -14 -15
-43 -15 -65 0 -22 -7 -49 -15 -59 -8 -11 -15 -36 -15 -55 0 -20 -7 -49 -15
-65 -8 -15 -15 -45 -15 -65 0 -20 -7 -45 -15 -55 -8 -11 -15 -36 -15 -55 -1
-20 -7 -47 -15 -61 -8 -14 -15 -41 -15 -60 0 -19 -7 -46 -15 -60 -8 -14 -14
-36 -15 -50 0 -14 -6 -45 -14 -70 -28 -89 -46 -157 -46 -177 0 -11 -7 -34 -15
-49 -8 -16 -15 -43 -15 -60 0 -16 -7 -39 -15 -50 -8 -10 -15 -38 -15 -61 0
-23 -5 -43 -10 -45 -6 -2 -15 -32 -20 -68 -5 -36 -14 -66 -20 -68 -5 -2 -10
-23 -10 -47 0 -24 -5 -45 -11 -47 -6 -2 -13 -26 -16 -53 -3 -28 -9 -54 -13
-60 -4 -5 -11 -32 -15 -60 -4 -27 -10 -52 -14 -55 -4 -3 -12 -30 -19 -60 -33
-140 -38 -159 -45 -166 -3 -4 -10 -29 -13 -56 -4 -26 -10 -48 -14 -48 -4 0
-11 -24 -14 -52 -4 -29 -11 -57 -15 -63 -5 -5 -11 -23 -14 -40 -2 -16 -14 -66
-27 -110 -12 -44 -26 -100 -31 -125 -5 -25 -14 -52 -18 -60 -5 -9 -12 -36 -16
-60 -4 -25 -11 -49 -15 -55 -4 -5 -10 -32 -13 -60 -3 -27 -10 -51 -16 -53 -6
-2 -11 -23 -11 -46 0 -23 -7 -51 -15 -62 -8 -10 -15 -37 -15 -60 0 -22 -7 -49
-15 -60 -8 -10 -15 -35 -15 -55 0 -19 -7 -44 -15 -55 -8 -10 -15 -35 -15 -54
0 -19 -7 -48 -15 -64 -8 -15 -15 -34 -15 -41 0 -33 -40 -47 -201 -70 -345 -50
-674 -126 -968 -224 -383 -128 -655 -250 -1635 -730 -192 -94 -353 -171 -357
-171 -9 0 -14 79 -28 445 -6 160 -15 313 -21 340 -5 28 -12 199 -15 380 -3
182 -10 407 -16 500 -11 169 -7 1821 4 2025 3 52 8 185 12 295 4 140 10 209
20 230 7 17 16 37 19 45 3 8 10 22 15 30 5 8 12 22 15 30 4 8 17 33 31 55 13
22 24 47 25 56 0 9 7 22 15 29 8 7 15 20 15 30 0 10 7 23 15 30 8 7 15 23 15
35 0 13 7 25 15 29 8 3 15 13 16 23 0 10 9 32 19 48 10 17 30 53 44 82 15 28
31 55 36 58 6 3 10 15 10 25 0 47 126 197 195 232 115 59 263 192 323 289 19
30 56 90 84 134 146 235 208 410 243 680 18 145 45 503 45 601 0 39 3 85 6
101 l6 30 231 22 c128 12 251 25 275 28 l42 6 0 -61 c0 -100 35 -121 203 -122
136 0 160 22 171 154 3 38 9 73 13 76 5 4 100 22 213 39 333 53 1152 221 1315
270 53 16 55 15 55 -41z m-2650 -405 c0 -91 -23 -506 -36 -663 -23 -292 -56
-423 -155 -625 -73 -150 -107 -198 -147 -206 -19 -4 -39 -12 -45 -18 -6 -6
-22 -11 -35 -11 -13 0 -38 -6 -55 -13 -37 -16 -151 -51 -317 -97 -41 -12 -87
-25 -101 -29 l-26 -8 18 98 c38 206 44 335 44 960 l0 606 290 8 c160 4 340 11
400 15 61 4 122 8 138 8 23 2 27 -2 27 -25z"/>
</g>
</svg>
